<svg width="1935" height="643" viewBox="0 0 1935 643" fill="none" xmlns="http://www.w3.org/2000/svg">
<path d="M1619.94 642.58C1687.11 642.58 1748.52 622.652 1803.14 583.533C1851.41 548.696 1887.58 503.082 1910.6 447.725H1781.14C1767.27 468.096 1749.85 485.22 1728.74 498.653C1695.38 520.353 1657.88 531.129 1618.17 531.129C1610.5 531.129 1602.82 530.686 1595.14 529.801C1587.03 528.915 1578.91 527.586 1570.79 525.815C1564 524.486 1556.76 522.567 1550.42 519.91C1547.76 519.467 1544.95 518.139 1542.3 517.253C1537.87 515.482 1533.29 513.71 1529.16 511.791C1509.82 503.672 1491.66 491.863 1474.54 476.658C1465.09 468.244 1456.83 458.796 1449.59 448.906V596.671C1499.34 627.228 1556.32 642.728 1619.8 642.728" fill="white"/>
<path d="M1483.26 157.656C1514.85 131.084 1551.02 116.618 1592.94 113.075C1600.18 112.632 1607.85 112.189 1615.09 112.189C1620.55 112.189 1626.31 112.632 1631.77 113.075C1636.34 113.075 1640.33 113.518 1644.46 114.404C1648.01 114.847 1652.14 115.289 1655.68 116.175H1657.01C1689.93 122.523 1719.16 135.956 1744.1 156.77C1763.44 172.565 1779.24 192.346 1791.49 214.931C1794.59 219.803 1797.84 225.707 1800.05 231.169C1803.74 237.96 1806.4 245.193 1809.06 252.869C1809.5 253.755 1809.94 255.083 1810.38 256.412H1651.4C1589.55 256.412 1539.51 306.454 1539.51 368.306H1934.38V348.378C1934.38 243.717 1905.01 158.837 1847.29 95.6562C1788.68 32.033 1710.15 0 1613.61 0C1531.39 0 1459.94 27.014 1401.04 79.8611C1423.33 114.108 1438.09 154.408 1445.03 200.908C1455.51 184.67 1468.35 170.055 1483.26 157.508" fill="white"/>
<path d="M527.881 612.467C525.371 614.238 522.862 616.01 520.352 617.781V642.729H638.594V481.087C612.908 533.935 575.856 578.072 527.881 612.467Z" fill="white"/>
<path d="M1375.22 105.989C1371.98 100.675 1368.73 95.5085 1365.04 90.4894C1361.49 85.6181 1357.66 80.8943 1353.82 76.4658C1352.34 74.6944 1350.87 72.923 1349.39 71.2992C1337.43 58.3088 1324.59 47.5327 1310.27 38.2328C1271.89 12.9902 1223.62 0.147461 1166.93 0.147461H1154.39C1075.56 0.147461 1012.67 31.1472 967.503 92.2609C921.741 31.1472 858.709 0.147461 780.176 0.147461H767.481C711.239 0.147461 663.263 12.8426 624.735 37.6423C610.563 46.7946 597.13 58.1612 585.026 71.1515C583.697 72.6277 582.516 74.1039 581.188 75.5801C611.744 110.123 634.92 150.127 650.42 195.298C656.325 178.617 664.296 164.298 674.482 152.489C697.067 125.327 728.658 111.894 772.795 111.451C816.49 111.894 849.114 125.18 872.289 152.194C881.147 162.232 888.232 174.041 894.285 188.065C903.732 211.831 908.603 241.207 908.603 275.602V642.432H1026.4V273.388C1026.4 240.026 1031.27 211.388 1040.57 188.36C1046.63 174.189 1053.71 162.379 1062.57 152.341C1085.74 125.327 1118.07 112.042 1163.69 111.599C1206.2 112.042 1237.79 125.475 1260.52 152.784C1269.68 163.413 1277.06 176.108 1282.67 190.574C1286.36 199.874 1289.31 210.06 1291.52 220.836C1292.56 225.56 1293.44 230.579 1294.03 235.598C1295.36 247.555 1296.25 260.25 1296.25 273.535V642.579H1414.05V267.188C1414.05 202.679 1400.91 148.798 1375.08 105.989" fill="white"/>
<path d="M484.776 256.412H355.316C293.464 256.412 243.421 306.454 243.421 368.306H638.299V348.377C638.299 249.031 611.875 167.398 559.618 105.399C556.814 102.151 554.157 98.9036 551.204 95.8037C549.876 94.3275 548.547 92.9989 547.219 91.5228C542.938 87.0942 538.657 82.8133 534.228 78.68C477.838 26.4234 405.063 0.147461 317.526 0.147461C229.988 0.147461 153.375 31.2948 92.1134 92.1132C31.1473 153.522 0 229.84 0 318.706C0 407.572 31.5902 486.99 93.8848 549.285C156.179 611.137 233.236 642.727 324.021 642.727C382.182 642.727 435.915 627.818 484.776 598.442C490.829 594.751 496.733 590.913 502.638 586.78C504.114 585.747 505.738 584.713 507.214 583.68C511.79 580.432 516.071 577.037 520.5 573.642C562.276 540.28 593.866 498.062 614.68 447.872H485.219C485.219 447.872 484.924 448.167 484.924 448.315C471.195 468.391 453.777 485.367 432.962 498.8C399.601 520.5 362.106 531.276 322.397 531.276C314.721 531.276 307.045 530.833 299.369 529.947C291.25 529.061 283.131 527.733 275.012 525.961C268.221 524.633 260.988 522.861 254.64 520.057C251.983 519.614 249.179 518.285 246.521 517.4C242.093 515.628 237.517 513.857 233.531 511.938C214.193 503.819 196.036 492.009 178.913 476.805C113.961 418.053 99.4943 318.854 130.199 238.993C142.008 207.403 161.789 179.503 187.474 157.803C219.065 131.232 255.231 116.765 297.154 113.223C304.388 112.78 312.064 112.337 319.297 112.337C324.759 112.337 330.663 112.78 335.978 113.223C340.554 113.223 344.54 113.665 348.673 114.551C352.216 114.994 356.349 115.437 359.892 116.323H361.22C394.139 122.67 423.515 136.103 448.315 156.917C464.553 170.055 478.134 186.146 489.352 204.155C491.567 207.698 493.633 211.388 495.7 215.079C498.8 219.95 502.048 225.855 504.262 231.317C507.952 238.107 510.609 245.34 513.266 252.869C513.709 253.755 514.152 255.083 514.595 256.412H485.072H484.776Z" fill="white"/>
</svg>
