<svg width="132" height="58" viewBox="0 0 132 58" fill="none" xmlns="http://www.w3.org/2000/svg">
<path d="M109.739 43.5301C114.289 43.5301 118.449 42.1801 122.149 39.5301C125.419 37.1701 127.869 34.0801 129.429 30.3301H120.659C119.719 31.7101 118.539 32.8701 117.109 33.7801C114.849 35.2501 112.309 35.9801 109.619 35.9801C109.099 35.9801 108.579 35.9501 108.059 35.8901C107.509 35.8301 106.959 35.7401 106.409 35.6201C105.949 35.5301 105.459 35.4001 105.029 35.2201C104.849 35.1901 104.659 35.1001 104.479 35.0401C104.179 34.9201 103.869 34.8001 103.589 34.6701C102.279 34.1201 101.049 33.3201 99.8892 32.2901C99.2492 31.7201 98.6892 31.0801 98.1992 30.4101V40.4201C101.569 42.4901 105.429 43.5401 109.729 43.5401" fill="white"/>
<path d="M100.48 10.68C102.62 8.88 105.07 7.9 107.91 7.66C108.4 7.63 108.92 7.6 109.41 7.6C109.78 7.6 110.17 7.63 110.54 7.66C110.85 7.66 111.12 7.69 111.4 7.75C111.64 7.78 111.92 7.81 112.16 7.87H112.25C114.48 8.3 116.46 9.21 118.15 10.62C119.46 11.69 120.53 13.03 121.36 14.56C121.57 14.89 121.79 15.29 121.94 15.66C122.19 16.12 122.37 16.61 122.55 17.13C122.58 17.19 122.61 17.28 122.64 17.37H111.87C107.68 17.37 104.29 20.76 104.29 24.95H131.04V23.6C131.04 16.51 129.05 10.76 125.14 6.48C121.17 2.17 115.85 0 109.31 0C103.74 0 98.9002 1.83 94.9102 5.41C96.4202 7.73 97.4202 10.46 97.8902 13.61C98.6002 12.51 99.4702 11.52 100.48 10.67" fill="white"/>
<path d="M35.76 41.4901C35.59 41.6101 35.42 41.7301 35.25 41.8501V43.5401H43.26V32.5901C41.52 36.1701 39.01 39.1601 35.76 41.4901Z" fill="white"/>
<path d="M93.1611 7.18001C92.9411 6.82001 92.7211 6.47001 92.4711 6.13001C92.2311 5.80001 91.9711 5.48001 91.7111 5.18001C91.6111 5.06001 91.5111 4.94001 91.4111 4.83001C90.6011 3.95001 89.7311 3.22001 88.7611 2.59001C86.1611 0.88001 82.8911 0.0100098 79.0511 0.0100098H78.2011C72.8611 0.0100098 68.6011 2.11001 65.5411 6.25001C62.4411 2.11001 58.1711 0.0100098 52.8511 0.0100098H51.9911C48.1811 0.0100098 44.9311 0.87001 42.3211 2.55001C41.3611 3.17001 40.4511 3.94001 39.6311 4.82001C39.5411 4.92001 39.4611 5.02001 39.3711 5.12001C41.4411 7.46001 43.0111 10.17 44.0611 13.23C44.4611 12.1 45.0011 11.13 45.6911 10.33C47.2211 8.49001 49.3611 7.58001 52.3511 7.55001C55.3111 7.58001 57.5211 8.48001 59.0911 10.31C59.6911 10.99 60.1711 11.79 60.5811 12.74C61.2211 14.35 61.5511 16.34 61.5511 18.67V43.52H69.5311V18.52C69.5311 16.26 69.8611 14.32 70.4911 12.76C70.9011 11.8 71.3811 11 71.9811 10.32C73.5511 8.49001 75.7411 7.59001 78.8311 7.56001C81.7111 7.59001 83.8511 8.50001 85.3911 10.35C86.0111 11.07 86.5111 11.93 86.8911 12.91C87.1411 13.54 87.3411 14.23 87.4911 14.96C87.5611 15.28 87.6211 15.62 87.6611 15.96C87.7511 16.77 87.8111 17.63 87.8111 18.53V43.53H95.7911V18.1C95.7911 13.73 94.9011 10.08 93.1511 7.18001" fill="white"/>
<path d="M32.84 17.37H24.07C19.88 17.37 16.49 20.76 16.49 24.95H43.24V23.6C43.24 16.87 41.45 11.34 37.91 7.14001C37.72 6.92001 37.54 6.70001 37.34 6.49001C37.25 6.39001 37.16 6.30001 37.07 6.20001C36.78 5.90001 36.49 5.61001 36.19 5.33001C32.37 1.79001 27.44 0.0100098 21.51 0.0100098C15.58 0.0100098 10.39 2.12001 6.24 6.24001C2.11 10.4 0 15.57 0 21.59C0 27.61 2.14 32.99 6.36 37.21C10.58 41.4 15.8 43.54 21.95 43.54C25.89 43.54 29.53 42.53 32.84 40.54C33.25 40.29 33.65 40.03 34.05 39.75C34.15 39.68 34.26 39.61 34.36 39.54C34.67 39.32 34.96 39.09 35.26 38.86C38.09 36.6 40.23 33.74 41.64 30.34H32.87C32.87 30.34 32.85 30.36 32.85 30.37C31.92 31.73 30.74 32.88 29.33 33.79C27.07 35.26 24.53 35.99 21.84 35.99C21.32 35.99 20.8 35.96 20.28 35.9C19.73 35.84 19.18 35.75 18.63 35.63C18.17 35.54 17.68 35.42 17.25 35.23C17.07 35.2 16.88 35.11 16.7 35.05C16.4 34.93 16.09 34.81 15.82 34.68C14.51 34.13 13.28 33.33 12.12 32.3C7.72 28.32 6.74 21.6 8.82 16.19C9.62 14.05 10.96 12.16 12.7 10.69C14.84 8.89001 17.29 7.91001 20.13 7.67001C20.62 7.64001 21.14 7.61001 21.63 7.61001C22 7.61001 22.4 7.64001 22.76 7.67001C23.07 7.67001 23.34 7.70001 23.62 7.76001C23.86 7.79001 24.14 7.82001 24.38 7.88001H24.47C26.7 8.31001 28.69 9.22001 30.37 10.63C31.47 11.52 32.39 12.61 33.15 13.83C33.3 14.07 33.44 14.32 33.58 14.57C33.79 14.9 34.01 15.3 34.16 15.67C34.41 16.13 34.59 16.62 34.77 17.13C34.8 17.19 34.83 17.28 34.86 17.37H32.86H32.84Z" fill="white"/>
<path d="M11.4103 53.5201C11.4303 54.7101 12.1903 55.2001 13.0703 55.2001C13.7003 55.2001 14.0803 55.0901 14.4103 54.9501L14.5603 55.5801C14.2503 55.7201 13.7203 55.8801 12.9503 55.8801C11.4603 55.8801 10.5703 54.9001 10.5703 53.4401C10.5703 51.9801 11.4303 50.8301 12.8403 50.8301C14.4203 50.8301 14.8403 52.2201 14.8403 53.1101C14.8403 53.2901 14.8203 53.4301 14.8103 53.5201H11.4103ZM13.9903 52.8901C13.9903 52.3301 13.7603 51.4601 12.7703 51.4601C11.8803 51.4601 11.4903 52.2801 11.4203 52.8901H13.9903Z" fill="white"/>
<path d="M19.9306 52.2501C19.9306 51.7501 19.9306 51.3401 19.8906 50.9401H20.6606L20.7006 51.7201H20.7306C21.0006 51.2601 21.4506 50.8301 22.2506 50.8301C22.9106 50.8301 23.4106 51.2301 23.6206 51.8001H23.6406C23.7906 51.5301 23.9806 51.3201 24.1806 51.1701C24.4706 50.9501 24.7906 50.8301 25.2506 50.8301C25.8906 50.8301 26.8406 51.2501 26.8406 52.9301V55.7801H25.9806V53.0401C25.9806 52.1101 25.6406 51.5501 24.9306 51.5501C24.4306 51.5501 24.0406 51.9201 23.8906 52.3501C23.8506 52.4701 23.8206 52.6301 23.8206 52.7901V55.7801H22.9606V52.8801C22.9606 52.1101 22.6206 51.5501 21.9506 51.5501C21.4006 51.5501 21.0006 51.9901 20.8606 52.4301C20.8106 52.5601 20.7906 52.7101 20.7906 52.8601V55.7801H19.9306V52.2501Z" fill="white"/>
<path d="M34.9604 55.7801L34.8904 55.1701H34.8604C34.5904 55.5501 34.0704 55.8901 33.3804 55.8901C32.4004 55.8901 31.9004 55.2001 31.9004 54.5001C31.9004 53.3301 32.9404 52.6901 34.8104 52.7001V52.6001C34.8104 52.2001 34.7004 51.4801 33.7104 51.4801C33.2604 51.4801 32.7904 51.6201 32.4504 51.8401L32.2504 51.2601C32.6504 51.0001 33.2304 50.8301 33.8404 50.8301C35.3204 50.8301 35.6804 51.8401 35.6804 52.8101V54.6201C35.6804 55.0401 35.7004 55.4501 35.7604 55.7801H34.9604ZM34.8304 53.3101C33.8704 53.2901 32.7804 53.4601 32.7804 54.4001C32.7804 54.9701 33.1604 55.2401 33.6104 55.2401C34.2404 55.2401 34.6404 54.8401 34.7804 54.4301C34.8104 54.3401 34.8304 54.2401 34.8304 54.1501V53.3101Z" fill="white"/>
<path d="M41.1005 52.4501C41.1005 51.8801 41.0905 51.3901 41.0605 50.9401H41.8305L41.8605 51.8901H41.9005C42.1205 51.2401 42.6505 50.8301 43.2405 50.8301C43.3405 50.8301 43.4105 50.8401 43.4905 50.8601V51.6901C43.4005 51.6701 43.3105 51.6601 43.1905 51.6601C42.5705 51.6601 42.1305 52.1301 42.0105 52.7901C41.9905 52.9101 41.9705 53.0501 41.9705 53.2001V55.7801H41.1005V52.4501Z" fill="white"/>
<path d="M49.2802 53.1599H49.3002C49.4202 52.9899 49.5902 52.7799 49.7302 52.6099L51.1502 50.9399H52.2102L50.3402 52.9299L52.4702 55.7799H51.4002L49.7302 53.4599L49.2802 53.9599V55.7799H48.4102V48.6799H49.2802V53.1599Z" fill="white"/>
<path d="M57.5998 53.5201C57.6198 54.7101 58.3798 55.2001 59.2598 55.2001C59.8898 55.2001 60.2698 55.0901 60.5998 54.9501L60.7498 55.5801C60.4398 55.7201 59.9098 55.8801 59.1398 55.8801C57.6498 55.8801 56.7598 54.9001 56.7598 53.4401C56.7598 51.9801 57.6198 50.8301 59.0298 50.8301C60.6098 50.8301 61.0298 52.2201 61.0298 53.1101C61.0298 53.2901 61.0098 53.4301 60.9998 53.5201H57.5998ZM60.1798 52.8901C60.1898 52.3301 59.9498 51.4601 58.9598 51.4601C58.0698 51.4601 57.6798 52.2801 57.6098 52.8901H60.1798Z" fill="white"/>
<path d="M67.1803 49.55V50.94H68.4403V51.61H67.1803V54.22C67.1803 54.82 67.3503 55.16 67.8403 55.16C68.0703 55.16 68.2403 55.13 68.3503 55.1L68.3903 55.76C68.2203 55.83 67.9503 55.88 67.6103 55.88C67.2003 55.88 66.8703 55.75 66.6603 55.51C66.4103 55.25 66.3203 54.82 66.3203 54.25V51.61H65.5703V50.94H66.3203V49.78L67.1803 49.55Z" fill="white"/>
<path d="M74.4103 49.58C74.4203 49.88 74.2003 50.12 73.8503 50.12C73.5403 50.12 73.3203 49.88 73.3203 49.58C73.3203 49.28 73.5503 49.03 73.8703 49.03C74.1903 49.03 74.4103 49.27 74.4103 49.58ZM73.4303 50.94H74.3103V55.78H73.4303V50.94Z" fill="white"/>
<path d="M79.7802 52.2501C79.7802 51.7501 79.7702 51.3401 79.7402 50.9401H80.5202L80.5702 51.7401H80.5902C80.8302 51.2801 81.3902 50.8301 82.1902 50.8301C82.8602 50.8301 83.9002 51.2301 83.9002 52.8901V55.7801H83.0202V52.9901C83.0202 52.2101 82.7302 51.5601 81.9002 51.5601C81.3202 51.5601 80.8702 51.9701 80.7202 52.4601C80.6802 52.5701 80.6602 52.7201 80.6602 52.8701V55.7801H79.7802V52.2501Z" fill="white"/>
<path d="M93.5005 50.9401C93.4805 51.2901 93.4605 51.6801 93.4605 52.2701V55.0801C93.4605 56.1901 93.2405 56.8701 92.7705 57.2901C92.3005 57.7301 91.6205 57.8701 91.0105 57.8701C90.4005 57.8701 89.7905 57.7301 89.4005 57.4701L89.6205 56.8001C89.9405 57.0001 90.4405 57.1801 91.0405 57.1801C91.9405 57.1801 92.6005 56.7101 92.6005 55.4901V54.9501H92.5805C92.3105 55.4001 91.7905 55.7601 91.0405 55.7601C89.8405 55.7601 88.9805 54.7401 88.9805 53.4001C88.9805 51.7601 90.0505 50.8301 91.1605 50.8301C92.0005 50.8301 92.4605 51.2701 92.6705 51.6701H92.6905L92.7305 50.9401H93.5005ZM92.5905 52.8501C92.5905 52.7001 92.5805 52.5701 92.5405 52.4501C92.3805 51.9401 91.9505 51.5201 91.3105 51.5201C90.4705 51.5201 89.8705 52.2301 89.8705 53.3501C89.8705 54.3001 90.3505 55.0901 91.3005 55.0901C91.8405 55.0901 92.3305 54.7501 92.5205 54.1901C92.5705 54.0401 92.5905 53.8701 92.5905 53.7201V52.8501Z" fill="white"/>
<path d="M99.4103 53.5201C99.4303 54.7101 100.19 55.2001 101.07 55.2001C101.7 55.2001 102.08 55.0901 102.41 54.9501L102.56 55.5801C102.25 55.7201 101.72 55.8801 100.95 55.8801C99.4603 55.8801 98.5703 54.9001 98.5703 53.4401C98.5703 51.9801 99.4303 50.8301 100.84 50.8301C102.42 50.8301 102.84 52.2201 102.84 53.1101C102.84 53.2901 102.82 53.4301 102.81 53.5201H99.4103ZM101.99 52.8901C101.99 52.3301 101.76 51.4601 100.77 51.4601C99.8803 51.4601 99.4903 52.2801 99.4203 52.8901H101.99Z" fill="white"/>
<path d="M108.261 50.9399L109.321 53.7999C109.431 54.1199 109.551 54.4999 109.631 54.7899H109.651C109.741 54.4999 109.841 54.1299 109.961 53.7799L110.921 50.9399H111.851L110.531 54.3899C109.901 56.0499 109.471 56.8999 108.871 57.4199C108.441 57.7999 108.011 57.9499 107.791 57.9899L107.571 57.2499C107.791 57.1799 108.081 57.0399 108.341 56.8199C108.581 56.6299 108.881 56.2899 109.081 55.8399C109.121 55.7499 109.151 55.6799 109.151 55.6299C109.151 55.5799 109.131 55.5099 109.091 55.3999L107.301 50.9399H108.261Z" fill="white"/>
<path d="M117.039 53.5201C117.059 54.7101 117.819 55.2001 118.699 55.2001C119.329 55.2001 119.709 55.0901 120.039 54.9501L120.189 55.5801C119.879 55.7201 119.349 55.8801 118.579 55.8801C117.089 55.8801 116.199 54.9001 116.199 53.4401C116.199 51.9801 117.059 50.8301 118.469 50.8301C120.049 50.8301 120.469 52.2201 120.469 53.1101C120.469 53.2901 120.449 53.4301 120.439 53.5201H117.039ZM119.619 52.8901C119.619 52.3301 119.389 51.4601 118.399 51.4601C117.509 51.4601 117.119 52.2801 117.049 52.8901H119.619Z" fill="white"/>
</svg>
