<svg width="113" height="52" viewBox="0 0 113 52" fill="none" xmlns="http://www.w3.org/2000/svg">
<path d="M94.6199 38.9399C98.543 38.9399 102.13 37.7323 105.32 35.3617C108.14 33.2506 110.252 30.4864 111.597 27.1318H104.035C103.225 28.3663 102.207 29.404 100.974 30.218C99.0259 31.533 96.8358 32.1861 94.5165 32.1861C94.0681 32.1861 93.6198 32.1592 93.1714 32.1055C92.6972 32.0519 92.223 31.9714 91.7487 31.864C91.3521 31.7835 90.9296 31.6672 90.5589 31.5062C90.4037 31.4794 90.2399 31.3988 90.0847 31.3452C89.826 31.2378 89.5587 31.1305 89.3173 31.0142C88.1878 30.5222 87.1272 29.8065 86.1271 28.8852C85.5753 28.3753 85.0924 27.8027 84.6699 27.2034V36.1579C87.5756 38.0096 90.9038 38.9489 94.6113 38.9489" fill="#F5821F"/>
<path d="M86.6356 9.55381C88.4807 7.94362 90.5931 7.06696 93.0418 6.85227C93.4643 6.82543 93.9127 6.79859 94.3352 6.79859C94.6542 6.79859 94.9905 6.82543 95.3095 6.85227C95.5768 6.85227 95.8096 6.8791 96.051 6.93278C96.2579 6.95961 96.4993 6.98645 96.7063 7.04012H96.7839C98.7066 7.42478 100.414 8.23882 101.871 9.50014C103 10.4573 103.923 11.656 104.639 13.0247C104.82 13.3199 105.009 13.6777 105.139 14.0087C105.354 14.4202 105.51 14.8585 105.665 15.3237C105.691 15.3773 105.716 15.4579 105.742 15.5384H96.4562C92.8435 15.5384 89.9206 18.5709 89.9206 22.3191H112.985V21.1114C112.985 14.769 111.269 9.62538 107.898 5.79669C104.475 1.94118 99.8879 0 94.2489 0C89.4464 0 85.2733 1.63703 81.833 4.83952C83.135 6.91488 83.9972 9.35701 84.4024 12.1748C85.0146 11.1908 85.7647 10.3052 86.6356 9.54487" fill="#F5821F"/>
<path d="M30.8333 37.1151C30.6867 37.2224 30.5401 37.3298 30.3936 37.4371V38.9489H37.2999V29.1536C35.7997 32.3561 33.6355 35.0308 30.8333 37.1151Z" fill="#333333"/>
<path d="M80.324 6.42297C80.1344 6.10093 79.9447 5.78784 79.7291 5.48369C79.5222 5.18849 79.298 4.90223 79.0738 4.63387C78.9876 4.52652 78.9014 4.41917 78.8152 4.32077C78.1168 3.53357 77.3666 2.88054 76.5303 2.31698C74.2885 0.787293 71.4691 0.0090332 68.1581 0.0090332H67.4253C62.821 0.0090332 59.148 1.88759 56.5096 5.59104C53.8367 1.88759 50.155 0.0090332 45.568 0.0090332H44.8265C41.5415 0.0090332 38.7392 0.778348 36.4889 2.28119C35.6611 2.83582 34.8765 3.52462 34.1695 4.31183C34.0919 4.40128 34.0229 4.49074 33.9453 4.58019C35.7301 6.67344 37.0838 9.09768 37.9891 11.835C38.334 10.8242 38.7996 9.95645 39.3945 9.24081C40.7137 7.59483 42.5589 6.78079 45.1369 6.75395C47.6891 6.78079 49.5946 7.58589 50.9483 9.22292C51.4656 9.83121 51.8795 10.5469 52.233 11.3967C52.7848 12.8369 53.0693 14.6171 53.0693 16.7014V38.931H59.9498V16.5672C59.9498 14.5455 60.2344 12.8101 60.7776 11.4146C61.1311 10.5558 61.5449 9.84016 62.0623 9.23186C63.4159 7.59483 65.3042 6.78974 67.9685 6.7629C70.4516 6.78974 72.2968 7.60378 73.6246 9.2587C74.1592 9.90278 74.5903 10.6721 74.9179 11.5487C75.1335 12.1123 75.3059 12.7296 75.4353 13.3826C75.4956 13.6688 75.5474 13.973 75.5818 14.2771C75.6594 15.0017 75.7112 15.771 75.7112 16.5761V38.9399H82.5917V16.1915C82.5917 12.2823 81.8243 9.01717 80.3154 6.42297" fill="#333333"/>
<path d="M28.3153 15.5385H20.7536C17.1409 15.5385 14.218 18.571 14.218 22.3192H37.2823V21.1115C37.2823 15.0912 35.739 10.1443 32.6867 6.38719C32.5229 6.19039 32.3677 5.99358 32.1952 5.80573C32.1176 5.71627 32.04 5.63576 31.9624 5.54631C31.7124 5.27794 31.4624 5.01852 31.2037 4.76805C27.91 1.60134 23.6593 0.0090332 18.5463 0.0090332C13.4334 0.0090332 8.95845 1.89654 5.38024 5.58209C1.81928 9.30343 0 13.9283 0 19.3135C0 24.6987 1.84515 29.5113 5.48371 33.2864C9.12227 37.0345 13.6231 38.9489 18.9257 38.9489C22.3228 38.9489 25.4613 38.0454 28.3153 36.2652C28.6688 36.0416 29.0137 35.809 29.3585 35.5585C29.4448 35.4959 29.5396 35.4333 29.6258 35.3707C29.8931 35.1739 30.1432 34.9681 30.4018 34.7624C32.8419 32.7407 34.687 30.1823 35.9028 27.1408H28.3411C28.3411 27.1408 28.3239 27.1587 28.3239 27.1676C27.522 28.3842 26.5046 29.4129 25.2889 30.227C23.3403 31.542 21.1502 32.195 18.8309 32.195C18.3825 32.195 17.9341 32.1682 17.4858 32.1145C17.0116 32.0608 16.5374 31.9803 16.0631 31.873C15.6665 31.7925 15.244 31.6851 14.8733 31.5151C14.7181 31.4883 14.5542 31.4078 14.399 31.3541C14.1404 31.2468 13.8731 31.1394 13.6403 31.0231C12.5108 30.5311 11.4503 29.8155 10.4501 28.8941C6.65633 25.3338 5.81135 19.3224 7.60477 14.4829C8.29454 12.5685 9.44991 10.8778 10.9502 9.56285C12.7953 7.95265 14.9078 7.07599 17.3565 6.8613C17.7789 6.83446 18.2273 6.80763 18.6498 6.80763C18.9688 6.80763 19.3137 6.83446 19.6241 6.8613C19.8914 6.8613 20.1242 6.88814 20.3656 6.94181C20.5725 6.96865 20.814 6.99548 21.0209 7.04915H21.0985C23.0212 7.43381 24.737 8.24785 26.1856 9.50917C27.134 10.3053 27.9273 11.2804 28.5825 12.3717C28.7119 12.5864 28.8326 12.8101 28.9533 13.0337C29.1344 13.3289 29.3241 13.6867 29.4534 14.0177C29.6689 14.4292 29.8241 14.8675 29.9793 15.3238C30.0052 15.3774 30.0311 15.4579 30.0569 15.5385H28.3325H28.3153Z" fill="#F5821F"/>
<path d="M9.83779 47.8766C9.85503 48.9411 10.5103 49.3794 11.2691 49.3794C11.8123 49.3794 12.1399 49.281 12.4244 49.1558L12.5538 49.7193C12.2865 49.8446 11.8295 49.9877 11.1656 49.9877C9.8809 49.9877 9.11353 49.111 9.11353 47.805C9.11353 46.4989 9.85503 45.4702 11.0708 45.4702C12.4331 45.4702 12.7952 46.7136 12.7952 47.5098C12.7952 47.6708 12.778 47.796 12.7693 47.8766H9.83779ZM12.0623 47.313C12.0623 46.812 11.864 46.0338 11.0104 46.0338C10.243 46.0338 9.90677 46.7673 9.84641 47.313H12.0623Z" fill="#333333"/>
<path d="M17.1841 46.7405C17.1841 46.2932 17.1841 45.9264 17.1497 45.5686H17.8136L17.8481 46.2664H17.8739C18.1067 45.8549 18.4947 45.4702 19.1845 45.4702C19.7536 45.4702 20.1847 45.828 20.3657 46.3379H20.383C20.5123 46.0964 20.6761 45.9085 20.8486 45.7744C21.0986 45.5776 21.3745 45.4702 21.7711 45.4702C22.323 45.4702 23.1421 45.8459 23.1421 47.3488V49.8982H22.4006V47.4472C22.4006 46.6152 22.1074 46.1143 21.4952 46.1143C21.0641 46.1143 20.7279 46.4453 20.5985 46.8299C20.564 46.9373 20.5382 47.0804 20.5382 47.2235V49.8982H19.7967V47.304C19.7967 46.6152 19.5035 46.1143 18.9258 46.1143C18.4516 46.1143 18.1067 46.5079 17.986 46.9015C17.9429 47.0178 17.9257 47.152 17.9257 47.2862V49.8982H17.1841V46.7405Z" fill="#333333"/>
<path d="M30.143 49.8982L30.0827 49.3526H30.0568C29.824 49.6925 29.3757 49.9966 28.7807 49.9966C27.9357 49.9966 27.5046 49.3794 27.5046 48.7532C27.5046 47.7066 28.4013 47.1341 30.0137 47.143V47.0536C30.0137 46.6958 29.9189 46.0517 29.0653 46.0517C28.6773 46.0517 28.272 46.1769 27.9789 46.3737L27.8064 45.8549C28.1513 45.6223 28.6514 45.4702 29.1773 45.4702C30.4534 45.4702 30.7638 46.3737 30.7638 47.2414V48.8606C30.7638 49.2363 30.7811 49.603 30.8328 49.8982H30.143ZM30.0309 47.6887C29.2032 47.6708 28.2634 47.8229 28.2634 48.6638C28.2634 49.1737 28.591 49.4152 28.979 49.4152C29.5222 49.4152 29.8671 49.0574 29.9878 48.6906C30.0137 48.6101 30.0309 48.5206 30.0309 48.4401V47.6887Z" fill="#333333"/>
<path d="M35.4368 46.9194C35.4368 46.4095 35.4282 45.9712 35.4023 45.5686H36.0663L36.0921 46.4184H36.1266C36.3163 45.837 36.7733 45.4702 37.282 45.4702C37.3682 45.4702 37.4286 45.4792 37.4975 45.4971V46.2395C37.4199 46.2216 37.3423 46.2127 37.2389 46.2127C36.7043 46.2127 36.3249 46.6331 36.2214 47.2235C36.2042 47.3309 36.187 47.4561 36.187 47.5903V49.8982H35.4368V46.9194Z" fill="#333333"/>
<path d="M42.4904 47.5542H42.5076C42.6111 47.4022 42.7577 47.2143 42.8784 47.0622L44.1027 45.5683H45.0167L43.4043 47.3485L45.2408 49.8979H44.3183L42.8784 47.8226L42.4904 48.2699V49.8979H41.7402V43.5466H42.4904V47.5542Z" fill="#333333"/>
<path d="M49.6635 47.8766C49.6807 48.9411 50.336 49.3794 51.0948 49.3794C51.638 49.3794 51.9656 49.281 52.2501 49.1558L52.3795 49.7193C52.1122 49.8446 51.6552 49.9877 50.9913 49.9877C49.7066 49.9877 48.9392 49.111 48.9392 47.805C48.9392 46.4989 49.6807 45.4702 50.8964 45.4702C52.2588 45.4702 52.6209 46.7136 52.6209 47.5098C52.6209 47.6708 52.6036 47.796 52.595 47.8766H49.6635ZM51.888 47.313C51.8966 46.812 51.6897 46.0338 50.8361 46.0338C50.0687 46.0338 49.7325 46.7673 49.6721 47.313H51.888Z" fill="#333333"/>
<path d="M57.9233 44.3252V45.5686H59.0097V46.168H57.9233V48.5028C57.9233 49.0395 58.0699 49.3436 58.4924 49.3436C58.6907 49.3436 58.8373 49.3168 58.9321 49.29L58.9666 49.8804C58.82 49.943 58.5872 49.9877 58.2941 49.9877C57.9406 49.9877 57.656 49.8714 57.475 49.6567C57.2594 49.4241 57.1818 49.0395 57.1818 48.5296V46.168H56.5352V45.5686H57.1818V44.5309L57.9233 44.3252Z" fill="#333333"/>
<path d="M64.1581 44.3519C64.1667 44.6202 63.9769 44.8349 63.675 44.8349C63.4076 44.8349 63.2178 44.6202 63.2178 44.3519C63.2178 44.0835 63.4162 43.8599 63.6922 43.8599C63.9683 43.8599 64.1581 44.0746 64.1581 44.3519ZM63.3127 45.5685H64.0718V49.8981H63.3127V45.5685Z" fill="#333333"/>
<path d="M68.7884 46.7405C68.7884 46.2932 68.7798 45.9264 68.7539 45.5686H69.4264L69.4695 46.2843H69.4868C69.6937 45.8728 70.1766 45.4702 70.8663 45.4702C71.444 45.4702 72.3407 45.828 72.3407 47.313V49.8982H71.582V47.4024C71.582 46.7047 71.3319 46.1232 70.6163 46.1232C70.1162 46.1232 69.7282 46.49 69.5989 46.9283C69.5644 47.0267 69.5472 47.1609 69.5472 47.2951V49.8982H68.7884V46.7405Z" fill="#333333"/>
<path d="M80.617 45.5686C80.5997 45.8817 80.5825 46.2306 80.5825 46.7584V49.2721C80.5825 50.265 80.3928 50.8733 79.9875 51.249C79.5823 51.6426 78.996 51.7679 78.47 51.7679C77.9441 51.7679 77.4181 51.6426 77.0819 51.41L77.2715 50.8107C77.5475 50.9896 77.9786 51.1506 78.4959 51.1506C79.2719 51.1506 79.841 50.7302 79.841 49.6388V49.1558H79.8237C79.5909 49.5583 79.1426 49.8804 78.4959 49.8804C77.4612 49.8804 76.7197 48.9679 76.7197 47.7692C76.7197 46.3021 77.6423 45.4702 78.5994 45.4702C79.3236 45.4702 79.7202 45.8638 79.9013 46.2216H79.9186L79.953 45.5686H80.617ZM79.8323 47.2772C79.8323 47.143 79.8237 47.0267 79.7892 46.9194C79.6513 46.4632 79.2805 46.0875 78.7287 46.0875C78.0044 46.0875 77.4871 46.7226 77.4871 47.7245C77.4871 48.5743 77.901 49.281 78.7201 49.281C79.1857 49.281 79.6082 48.9769 79.772 48.4759C79.8151 48.3417 79.8323 48.1897 79.8323 48.0555V47.2772Z" fill="#333333"/>
<path d="M85.7125 47.8766C85.7298 48.9411 86.3851 49.3794 87.1438 49.3794C87.687 49.3794 88.0147 49.281 88.2992 49.1558L88.4285 49.7193C88.1612 49.8446 87.7043 49.9877 87.0404 49.9877C85.7557 49.9877 84.9883 49.111 84.9883 47.805C84.9883 46.4989 85.7298 45.4702 86.9455 45.4702C88.3078 45.4702 88.67 46.7136 88.67 47.5098C88.67 47.6708 88.6527 47.796 88.6441 47.8766H85.7125ZM87.9371 47.313C87.9371 46.812 87.7388 46.0338 86.8852 46.0338C86.1178 46.0338 85.7815 46.7673 85.7212 47.313H87.9371Z" fill="#333333"/>
<path d="M93.3434 45.5684L94.2573 48.1268C94.3521 48.413 94.4556 48.753 94.5246 49.0124H94.5418C94.6194 48.753 94.7057 48.422 94.8091 48.1089L95.6369 45.5684H96.4387L95.3006 48.6546C94.7574 50.1395 94.3866 50.8999 93.8693 51.3651C93.4986 51.705 93.1278 51.8392 92.9381 51.8749L92.7484 51.213C92.9381 51.1504 93.1881 51.0251 93.4123 50.8283C93.6193 50.6584 93.8779 50.3542 94.0504 49.9517C94.0849 49.8712 94.1107 49.8085 94.1107 49.7638C94.1107 49.7191 94.0935 49.6565 94.059 49.5581L92.5156 45.5684H93.3434Z" fill="#333333"/>
<path d="M100.915 47.8766C100.932 48.9411 101.587 49.3794 102.346 49.3794C102.889 49.3794 103.217 49.281 103.501 49.1558L103.631 49.7193C103.363 49.8446 102.906 49.9877 102.243 49.9877C100.958 49.9877 100.19 49.111 100.19 47.805C100.19 46.4989 100.932 45.4702 102.148 45.4702C103.51 45.4702 103.872 46.7136 103.872 47.5098C103.872 47.6708 103.855 47.796 103.846 47.8766H100.915ZM103.139 47.313C103.139 46.812 102.941 46.0338 102.087 46.0338C101.32 46.0338 100.984 46.7673 100.923 47.313H103.139Z" fill="#333333"/>
</svg>
